<svg width="440" height="340" xmlns="http://www.w3.org/2000/svg">
<path stroke-width="1" stroke="black" d="M 247 147 227 133"/>
<path stroke-width="1" stroke="black" d="M 151 193 175 198"/>
<path stroke-width="1" stroke="black" d="M 151 193 131 201"/>
<path stroke-width="1" stroke="black" d="M 151 193 158 165"/>
<path stroke-width="1" stroke="black" d="M 250 266 249 227"/>
<path stroke-width="1" stroke="black" d="M 169 211 211 203"/>
<path stroke-width="1" stroke="black" d="M 183 151 157 188"/>
<path stroke-width="1" stroke="black" d="M 151 193 185 202"/>
<path stroke-width="1" stroke="black" d="M 151 257 192 231"/>
<path stroke-width="1" stroke="black" d="M 161 125 171 147"/>
<path stroke-width="1" stroke="black" d="M 161 125 158 165"/>
<path stroke-width="1" stroke="black" d="M 175 225 209 222"/>
<path stroke-width="1" stroke="black" d="M 175 198 209 222"/>
<path stroke-width="1" stroke="black" d="M 175 198 151 193"/>
<path stroke-width="1" stroke="black" d="M 178 141 171 147"/>
<path stroke-width="1" stroke="black" d="M 161 125 171 108"/>
<path stroke-width="1" stroke="black" d="M 110 125 135 93"/>
<path stroke-width="1" stroke="black" d="M 110 125 88 168"/>
<path stroke-width="1" stroke="black" d="M 186 104 171 147"/>
<path stroke-width="1" stroke="black" d="M 197 170 166 136"/>
<path stroke-width="1" stroke="black" d="M 197 170 185 193"/>
<path stroke-width="1" stroke="black" d="M 197 170 217 177"/>
<path stroke-width="1" stroke="black" d="M 197 170 211 203"/>
<path stroke-width="1" stroke="black" d="M 197 170 227 133"/>
<path stroke-width="1" stroke="black" d="M 212 312 195 271"/>
<path stroke-width="1" stroke="black" d="M 209 222 175 225"/>
<path stroke-width="1" stroke="black" d="M 209 222 175 198"/>
<path stroke-width="1" stroke="black" d="M 209 222 241 243"/>
<path stroke-width="1" stroke="black" d="M 209 222 192 231"/>
<path stroke-width="1" stroke="black" d="M 209 222 249 227"/>
<path stroke-width="1" stroke="black" d="M 209 222 211 203"/>
<path stroke-width="1" stroke="black" d="M 168 154 171 147"/>
<path stroke-width="1" stroke="black" d="M 168 154 158 165"/>
<path stroke-width="1" stroke="black" d="M 192 254 162 235"/>
<path stroke-width="1" stroke="black" d="M 178 141 158 165"/>
<path stroke-width="1" stroke="black" d="M 162 177 185 202"/>
<path stroke-width="1" stroke="black" d="M 162 177 189 178"/>
<path stroke-width="1" stroke="black" d="M 162 177 115 169"/>
<path stroke-width="1" stroke="black" d="M 239 189 211 203"/>
<path stroke-width="1" stroke="black" d="M 260 170 217 177"/>
<path stroke-width="1" stroke="black" d="M 172 305 195 271"/>
<path stroke-width="1" stroke="black" d="M 166 136 197 170"/>
<path stroke-width="1" stroke="black" d="M 171 147 185 202"/>
<path stroke-width="1" stroke="black" d="M 171 147 157 188"/>
<path stroke-width="1" stroke="black" d="M 171 147 171 108"/>
<path stroke-width="1" stroke="black" d="M 171 147 168 154"/>
<path stroke-width="1" stroke="black" d="M 171 147 186 104"/>
<path stroke-width="1" stroke="black" d="M 171 147 161 125"/>
<path stroke-width="1" stroke="black" d="M 171 147 178 141"/>
<path stroke-width="1" stroke="black" d="M 171 147 158 165"/>
<path stroke-width="1" stroke="black" d="M 131 201 157 188"/>
<path stroke-width="1" stroke="black" d="M 131 201 142 212"/>
<path stroke-width="1" stroke="black" d="M 131 201 151 193"/>
<path stroke-width="1" stroke="black" d="M 239 189 238 206"/>
<path stroke-width="1" stroke="black" d="M 197 170 162 177"/>
<path stroke-width="1" stroke="black" d="M 239 189 221 187"/>
<path stroke-width="1" stroke="black" d="M 239 189 248 169"/>
<path stroke-width="1" stroke="black" d="M 162 177 197 170"/>
<path stroke-width="1" stroke="black" d="M 162 177 185 193"/>
<path stroke-width="1" stroke="black" d="M 162 177 148 178"/>
<path stroke-width="1" stroke="black" d="M 226 190 192 231"/>
<path stroke-width="1" stroke="black" d="M 226 190 211 203"/>
<path stroke-width="1" stroke="black" d="M 226 190 247 147"/>
<path stroke-width="1" stroke="black" d="M 249 253 249 227"/>
<path stroke-width="1" stroke="black" d="M 249 253 218 237"/>
<path stroke-width="1" stroke="black" d="M 289 211 249 227"/>
<path stroke-width="1" stroke="black" d="M 241 243 209 222"/>
<path stroke-width="1" stroke="black" d="M 198 251 185 202"/>
<path stroke-width="1" stroke="black" d="M 198 251 195 271"/>
<path stroke-width="1" stroke="black" d="M 35 275 39 290"/>
<path stroke-width="1" stroke="black" d="M 223 143 221 187"/>
<path stroke-width="1" stroke="black" d="M 239 189 246 196"/>
<path stroke-width="1" stroke="black" d="M 239 189 231 206"/>
<path stroke-width="1" stroke="black" d="M 197 170 221 198"/>
<path stroke-width="1" stroke="black" d="M 197 170 185 202"/>
<path stroke-width="1" stroke="black" d="M 419 222 420 206"/>
<path stroke-width="1" stroke="black" d="M 157 188 183 151"/>
<path stroke-width="1" stroke="black" d="M 157 188 171 147"/>
<path stroke-width="1" stroke="black" d="M 157 188 131 201"/>
<path stroke-width="1" stroke="black" d="M 157 188 158 165"/>
<path stroke-width="1" stroke="black" d="M 189 178 208 165"/>
<path stroke-width="1" stroke="black" d="M 189 178 162 177"/>
<path stroke-width="1" stroke="black" d="M 189 178 185 193"/>
<path stroke-width="1" stroke="black" d="M 189 178 211 203"/>
<path stroke-width="1" stroke="black" d="M 246 196 263 218"/>
<path stroke-width="1" stroke="black" d="M 246 196 239 189"/>
<path stroke-width="1" stroke="black" d="M 246 196 248 169"/>
<path stroke-width="1" stroke="black" d="M 246 196 221 187"/>
<path stroke-width="1" stroke="black" d="M 246 196 238 206"/>
<path stroke-width="1" stroke="black" d="M 246 196 211 203"/>
<path stroke-width="1" stroke="black" d="M 171 108 161 125"/>
<path stroke-width="1" stroke="black" d="M 157 188 146 162"/>
<path stroke-width="1" stroke="black" d="M 171 108 171 147"/>
<path stroke-width="1" stroke="black" d="M 157 188 157 237"/>
<path stroke-width="1" stroke="black" d="M 157 188 152 220"/>
<path stroke-width="1" stroke="black" d="M 263 218 238 206"/>
<path stroke-width="1" stroke="black" d="M 152 220 157 188"/>
<path stroke-width="1" stroke="black" d="M 152 220 142 212"/>
<path stroke-width="1" stroke="black" d="M 185 202 201 201"/>
<path stroke-width="1" stroke="black" d="M 185 202 197 170"/>
<path stroke-width="1" stroke="black" d="M 185 202 151 193"/>
<path stroke-width="1" stroke="black" d="M 185 202 162 177"/>
<path stroke-width="1" stroke="black" d="M 185 202 198 251"/>
<path stroke-width="1" stroke="black" d="M 185 202 171 147"/>
<path stroke-width="1" stroke="black" d="M 185 202 221 187"/>
<path stroke-width="1" stroke="black" d="M 185 202 217 177"/>
<path stroke-width="1" stroke="black" d="M 185 202 148 178"/>
<path stroke-width="1" stroke="black" d="M 185 202 195 271"/>
<path stroke-width="1" stroke="black" d="M 199 315 195 271"/>
<path stroke-width="1" stroke="black" d="M 68 179 88 168"/>
<path stroke-width="1" stroke="black" d="M 157 188 142 212"/>
<path stroke-width="1" stroke="black" d="M 248 169 246 196"/>
<path stroke-width="1" stroke="black" d="M 24 153 23 133"/>
<path stroke-width="1" stroke="black" d="M 231 180 221 187"/>
<path stroke-width="1" stroke="black" d="M 157 237 179 271"/>
<path stroke-width="1" stroke="black" d="M 157 237 162 235"/>
<path stroke-width="1" stroke="black" d="M 189 160 221 187"/>
<path stroke-width="1" stroke="black" d="M 283 234 249 227"/>
<path stroke-width="1" stroke="black" d="M 283 234 282 219"/>
<path stroke-width="1" stroke="black" d="M 178 320 179 271"/>
<path stroke-width="1" stroke="black" d="M 420 206 419 222"/>
<path stroke-width="1" stroke="black" d="M 136 271 162 235"/>
<path stroke-width="1" stroke="black" d="M 115 169 162 177"/>
<path stroke-width="1" stroke="black" d="M 115 169 88 168"/>
<path stroke-width="1" stroke="black" d="M 208 165 189 178"/>
<path stroke-width="1" stroke="black" d="M 208 165 211 203"/>
<path stroke-width="1" stroke="black" d="M 146 162 157 188"/>
<path stroke-width="1" stroke="black" d="M 146 162 141 185"/>
<path stroke-width="1" stroke="black" d="M 39 290 35 275"/>
<path stroke-width="1" stroke="black" d="M 157 237 142 212"/>
<path stroke-width="1" stroke="black" d="M 231 180 231 206"/>
<path stroke-width="1" stroke="black" d="M 157 237 157 188"/>
<path stroke-width="1" stroke="black" d="M 221 198 249 227"/>
<path stroke-width="1" stroke="black" d="M 231 180 211 203"/>
<path stroke-width="1" stroke="black" d="M 201 201 185 202"/>
<path stroke-width="1" stroke="black" d="M 201 201 221 187"/>
<path stroke-width="1" stroke="black" d="M 106 20 101 33"/>
<path stroke-width="1" stroke="black" d="M 142 212 152 220"/>
<path stroke-width="1" stroke="black" d="M 142 212 157 188"/>
<path stroke-width="1" stroke="black" d="M 142 212 157 237"/>
<path stroke-width="1" stroke="black" d="M 142 212 131 201"/>
<path stroke-width="1" stroke="black" d="M 142 212 141 185"/>
<path stroke-width="1" stroke="black" d="M 80 206 88 168"/>
<path stroke-width="1" stroke="black" d="M 224 244 211 203"/>
<path stroke-width="1" stroke="black" d="M 185 231 185 193"/>
<path stroke-width="1" stroke="black" d="M 185 231 211 203"/>
<path stroke-width="1" stroke="black" d="M 185 231 190 271"/>
<path stroke-width="1" stroke="black" d="M 221 198 197 170"/>
<path stroke-width="1" stroke="black" d="M 221 198 211 203"/>
<path stroke-width="1" stroke="black" d="M 248 169 239 189"/>
<path stroke-width="1" stroke="black" d="M 248 169 221 187"/>
<path stroke-width="1" stroke="black" d="M 262 263 249 227"/>
<path stroke-width="1" stroke="black" d="M 141 185 146 162"/>
<path stroke-width="1" stroke="black" d="M 256 187 249 227"/>
<path stroke-width="1" stroke="black" d="M 23 133 24 153"/>
<path stroke-width="1" stroke="black" d="M 23 133 20 113"/>
<path stroke-width="1" stroke="black" d="M 162 235 157 237"/>
<path stroke-width="1" stroke="black" d="M 162 235 136 271"/>
<path stroke-width="1" stroke="black" d="M 162 235 192 254"/>
<path stroke-width="1" stroke="black" d="M 162 235 179 271"/>
<path stroke-width="1" stroke="black" d="M 162 235 158 165"/>
<path stroke-width="1" stroke="black" d="M 135 93 110 125"/>
<path stroke-width="1" stroke="black" d="M 211 203 189 178"/>
<path stroke-width="1" stroke="black" d="M 211 203 246 196"/>
<path stroke-width="1" stroke="black" d="M 211 203 231 180"/>
<path stroke-width="1" stroke="black" d="M 211 203 224 244"/>
<path stroke-width="1" stroke="black" d="M 211 203 185 231"/>
<path stroke-width="1" stroke="black" d="M 141 185 142 212"/>
<path stroke-width="1" stroke="black" d="M 211 203 221 198"/>
<path stroke-width="1" stroke="black" d="M 172 125 158 165"/>
<path stroke-width="1" stroke="black" d="M 218 237 221 187"/>
<path stroke-width="1" stroke="black" d="M 179 271 218 237"/>
<path stroke-width="1" stroke="black" d="M 179 271 162 235"/>
<path stroke-width="1" stroke="black" d="M 196 241 211 203"/>
<path stroke-width="1" stroke="black" d="M 154 248 202 238"/>
<path stroke-width="1" stroke="black" d="M 158 165 157 188"/>
<path stroke-width="1" stroke="black" d="M 158 165 168 154"/>
<path stroke-width="1" stroke="black" d="M 158 165 151 193"/>
<path stroke-width="1" stroke="black" d="M 158 165 161 125"/>
<path stroke-width="1" stroke="black" d="M 158 165 178 141"/>
<path stroke-width="1" stroke="black" d="M 158 165 171 147"/>
<path stroke-width="1" stroke="black" d="M 158 165 129 140"/>
<path stroke-width="1" stroke="black" d="M 158 165 172 125"/>
<path stroke-width="1" stroke="black" d="M 158 165 162 235"/>
<path stroke-width="1" stroke="black" d="M 218 237 249 253"/>
<path stroke-width="1" stroke="black" d="M 218 237 231 206"/>
<path stroke-width="1" stroke="black" d="M 218 237 179 271"/>
<path stroke-width="1" stroke="black" d="M 179 271 178 320"/>
<path stroke-width="1" stroke="black" d="M 211 203 208 165"/>
<path stroke-width="1" stroke="black" d="M 211 203 209 222"/>
<path stroke-width="1" stroke="black" d="M 202 238 226 235"/>
<path stroke-width="1" stroke="black" d="M 202 238 249 227"/>
<path stroke-width="1" stroke="black" d="M 202 238 154 248"/>
<path stroke-width="1" stroke="black" d="M 195 271 185 202"/>
<path stroke-width="1" stroke="black" d="M 195 271 199 315"/>
<path stroke-width="1" stroke="black" d="M 195 271 212 312"/>
<path stroke-width="1" stroke="black" d="M 195 271 198 251"/>
<path stroke-width="1" stroke="black" d="M 195 271 172 305"/>
<path stroke-width="1" stroke="black" d="M 195 271 192 231"/>
<path stroke-width="1" stroke="black" d="M 195 271 190 271"/>
<path stroke-width="1" stroke="black" d="M 195 271 221 267"/>
<path stroke-width="1" stroke="black" d="M 221 267 249 227"/>
<path stroke-width="1" stroke="black" d="M 221 267 190 271"/>
<path stroke-width="1" stroke="black" d="M 221 267 195 271"/>
<path stroke-width="1" stroke="black" d="M 247 147 226 190"/>
<path stroke-width="1" stroke="black" d="M 148 178 162 177"/>
<path stroke-width="1" stroke="black" d="M 211 203 197 170"/>
<path stroke-width="1" stroke="black" d="M 148 178 185 202"/>
<path stroke-width="1" stroke="black" d="M 190 271 195 271"/>
<path stroke-width="1" stroke="black" d="M 211 203 169 211"/>
<path stroke-width="1" stroke="black" d="M 211 203 226 190"/>
<path stroke-width="1" stroke="black" d="M 211 203 239 189"/>
<path stroke-width="1" stroke="black" d="M 211 203 185 193"/>
<path stroke-width="1" stroke="black" d="M 211 203 221 187"/>
<path stroke-width="1" stroke="black" d="M 211 203 217 177"/>
<path stroke-width="1" stroke="black" d="M 211 203 249 227"/>
<path stroke-width="1" stroke="black" d="M 211 203 196 241"/>
<path stroke-width="1" stroke="black" d="M 254 174 221 187"/>
<path stroke-width="1" stroke="black" d="M 254 174 238 206"/>
<path stroke-width="1" stroke="black" d="M 101 33 106 20"/>
<path stroke-width="1" stroke="black" d="M 277 206 249 227"/>
<path stroke-width="1" stroke="black" d="M 227 133 197 170"/>
<path stroke-width="1" stroke="black" d="M 227 133 247 147"/>
<path stroke-width="1" stroke="black" d="M 190 271 185 231"/>
<path stroke-width="1" stroke="black" d="M 190 271 221 267"/>
<path stroke-width="1" stroke="black" d="M 263 218 246 196"/>
<path stroke-width="1" stroke="black" d="M 179 271 157 237"/>
<path stroke-width="1" stroke="black" d="M 282 219 249 227"/>
<path stroke-width="1" stroke="black" d="M 221 187 223 143"/>
<path stroke-width="1" stroke="black" d="M 221 187 239 189"/>
<path stroke-width="1" stroke="black" d="M 221 187 248 169"/>
<path stroke-width="1" stroke="black" d="M 221 187 231 206"/>
<path stroke-width="1" stroke="black" d="M 221 187 238 206"/>
<path stroke-width="1" stroke="black" d="M 221 187 218 237"/>
<path stroke-width="1" stroke="black" d="M 221 187 211 203"/>
<path stroke-width="1" stroke="black" d="M 221 187 254 174"/>
<path stroke-width="1" stroke="black" d="M 217 177 185 202"/>
<path stroke-width="1" stroke="black" d="M 217 177 197 170"/>
<path stroke-width="1" stroke="black" d="M 217 177 260 170"/>
<path stroke-width="1" stroke="black" d="M 217 177 211 203"/>
<path stroke-width="1" stroke="black" d="M 262 195 249 227"/>
<path stroke-width="1" stroke="black" d="M 192 231 209 222"/>
<path stroke-width="1" stroke="black" d="M 192 231 151 257"/>
<path stroke-width="1" stroke="black" d="M 221 187 189 160"/>
<path stroke-width="1" stroke="black" d="M 192 231 226 190"/>
<path stroke-width="1" stroke="black" d="M 221 187 201 201"/>
<path stroke-width="1" stroke="black" d="M 221 187 246 196"/>
<path stroke-width="1" stroke="black" d="M 383 212 384 196"/>
<path stroke-width="1" stroke="black" d="M 226 235 249 227"/>
<path stroke-width="1" stroke="black" d="M 226 235 202 238"/>
<path stroke-width="1" stroke="black" d="M 185 193 189 178"/>
<path stroke-width="1" stroke="black" d="M 185 193 185 231"/>
<path stroke-width="1" stroke="black" d="M 185 193 197 170"/>
<path stroke-width="1" stroke="black" d="M 185 193 162 177"/>
<path stroke-width="1" stroke="black" d="M 185 193 211 203"/>
<path stroke-width="1" stroke="black" d="M 384 196 383 212"/>
<path stroke-width="1" stroke="black" d="M 231 206 231 180"/>
<path stroke-width="1" stroke="black" d="M 231 206 239 189"/>
<path stroke-width="1" stroke="black" d="M 231 206 221 187"/>
<path stroke-width="1" stroke="black" d="M 231 206 238 206"/>
<path stroke-width="1" stroke="black" d="M 231 206 218 237"/>
<path stroke-width="1" stroke="black" d="M 221 187 185 202"/>
<path stroke-width="1" stroke="black" d="M 221 187 231 180"/>
<path stroke-width="1" stroke="black" d="M 282 219 286 225"/>
<path stroke-width="1" stroke="black" d="M 192 231 144 239"/>
<path stroke-width="1" stroke="black" d="M 192 231 195 271"/>
<path stroke-width="1" stroke="black" d="M 88 168 80 206"/>
<path stroke-width="1" stroke="black" d="M 88 168 115 169"/>
<path stroke-width="1" stroke="black" d="M 88 168 110 125"/>
<path stroke-width="1" stroke="black" d="M 144 239 192 231"/>
<path stroke-width="1" stroke="black" d="M 238 206 263 218"/>
<path stroke-width="1" stroke="black" d="M 238 206 246 196"/>
<path stroke-width="1" stroke="black" d="M 238 206 239 189"/>
<path stroke-width="1" stroke="black" d="M 238 206 231 206"/>
<path stroke-width="1" stroke="black" d="M 238 206 221 187"/>
<path stroke-width="1" stroke="black" d="M 238 206 192 231"/>
<path stroke-width="1" stroke="black" d="M 238 206 254 174"/>
<path stroke-width="1" stroke="black" d="M 286 225 249 227"/>
<path stroke-width="1" stroke="black" d="M 286 225 282 219"/>
<path stroke-width="1" stroke="black" d="M 129 140 158 165"/>
<path stroke-width="1" stroke="black" d="M 282 219 283 234"/>
<path stroke-width="1" stroke="black" d="M 88 168 68 179"/>
<path stroke-width="1" stroke="black" d="M 192 231 238 206"/>
<path stroke-width="1" stroke="black" d="M 88 168 62 170"/>
<path stroke-width="1" stroke="black" d="M 249 227 202 238"/>
<path stroke-width="1" stroke="black" d="M 20 113 23 133"/>
<path stroke-width="1" stroke="black" d="M 249 227 221 198"/>
<path stroke-width="1" stroke="black" d="M 249 227 283 234"/>
<path stroke-width="1" stroke="black" d="M 249 227 209 222"/>
<path stroke-width="1" stroke="black" d="M 249 227 250 266"/>
<path stroke-width="1" stroke="black" d="M 249 227 249 253"/>
<path stroke-width="1" stroke="black" d="M 249 227 289 211"/>
<path stroke-width="1" stroke="black" d="M 249 227 262 263"/>
<path stroke-width="1" stroke="black" d="M 249 227 226 235"/>
<path stroke-width="1" stroke="black" d="M 249 227 262 195"/>
<path stroke-width="1" stroke="black" d="M 249 227 286 225"/>
<path stroke-width="1" stroke="black" d="M 249 227 282 219"/>
<path stroke-width="1" stroke="black" d="M 249 227 256 187"/>
<path stroke-width="1" stroke="black" d="M 249 227 211 203"/>
<path stroke-width="1" stroke="black" d="M 249 227 277 206"/>
<path stroke-width="1" stroke="black" d="M 249 227 221 267"/>
<path stroke-width="1" stroke="black" d="M 62 170 88 168"/>
<circle cx="247" cy="147" r="7.0" style="fill:blue;stroke:black;stroke-width:1.0"/>
<circle cx="221" cy="267" r="7.0" style="fill:yellow;stroke:black;stroke-width:1.0"/>
<circle cx="195" cy="271" r="7.0" style="fill:yellow;stroke:black;stroke-width:1.0"/>
<circle cx="202" cy="238" r="7.0" style="fill:red;stroke:black;stroke-width:1.0"/>
<circle cx="148" cy="178" r="7.0" style="fill:blue;stroke:black;stroke-width:1.0"/>
<circle cx="190" cy="271" r="7.0" style="fill:yellow;stroke:black;stroke-width:1.0"/>
<circle cx="227" cy="133" r="7.0" style="fill:blue;stroke:black;stroke-width:1.0"/>
<circle cx="277" cy="206" r="7.0" style="fill:red;stroke:black;stroke-width:1.0"/>
<circle cx="101" cy="33" r="7.0" style="fill:white;stroke:black;stroke-width:1.0"/>
<circle cx="254" cy="174" r="7.0" style="fill:orange;stroke:black;stroke-width:1.0"/>
<circle cx="211" cy="203" r="7.0" style="fill:blue;stroke:black;stroke-width:1.0"/>
<circle cx="135" cy="93" r="7.0" style="fill:olive;stroke:black;stroke-width:1.0"/>
<circle cx="162" cy="235" r="7.0" style="fill:green;stroke:black;stroke-width:1.0"/>
<circle cx="23" cy="133" r="7.0" style="fill:aqua;stroke:black;stroke-width:1.0"/>
<circle cx="256" cy="187" r="7.0" style="fill:red;stroke:black;stroke-width:1.0"/>
<circle cx="141" cy="185" r="7.0" style="fill:green;stroke:black;stroke-width:1.0"/>
<circle cx="172" cy="125" r="7.0" style="fill:purple;stroke:black;stroke-width:1.0"/>
<circle cx="218" cy="237" r="7.0" style="fill:orange;stroke:black;stroke-width:1.0"/>
<circle cx="158" cy="165" r="7.0" style="fill:purple;stroke:black;stroke-width:1.0"/>
<circle cx="154" cy="248" r="7.0" style="fill:red;stroke:black;stroke-width:1.0"/>
<circle cx="196" cy="241" r="7.0" style="fill:blue;stroke:black;stroke-width:1.0"/>
<circle cx="179" cy="271" r="7.0" style="fill:green;stroke:black;stroke-width:1.0"/>
<circle cx="282" cy="219" r="7.0" style="fill:red;stroke:black;stroke-width:1.0"/>
<circle cx="129" cy="140" r="7.0" style="fill:purple;stroke:black;stroke-width:1.0"/>
<circle cx="286" cy="225" r="7.0" style="fill:red;stroke:black;stroke-width:1.0"/>
<circle cx="238" cy="206" r="7.0" style="fill:orange;stroke:black;stroke-width:1.0"/>
<circle cx="144" cy="239" r="7.0" style="fill:fuchsia;stroke:black;stroke-width:1.0"/>
<circle cx="88" cy="168" r="7.0" style="fill:olive;stroke:black;stroke-width:1.0"/>
<circle cx="249" cy="227" r="7.0" style="fill:red;stroke:black;stroke-width:1.0"/>
<circle cx="20" cy="113" r="7.0" style="fill:aqua;stroke:black;stroke-width:1.0"/>
<circle cx="192" cy="231" r="7.0" style="fill:fuchsia;stroke:black;stroke-width:1.0"/>
<circle cx="262" cy="195" r="7.0" style="fill:red;stroke:black;stroke-width:1.0"/>
<circle cx="217" cy="177" r="7.0" style="fill:blue;stroke:black;stroke-width:1.0"/>
<circle cx="221" cy="187" r="7.0" style="fill:orange;stroke:black;stroke-width:1.0"/>
<circle cx="231" cy="206" r="7.0" style="fill:orange;stroke:black;stroke-width:1.0"/>
<circle cx="384" cy="196" r="7.0" style="fill:brown;stroke:black;stroke-width:1.0"/>
<circle cx="185" cy="193" r="7.0" style="fill:blue;stroke:black;stroke-width:1.0"/>
<circle cx="226" cy="235" r="7.0" style="fill:red;stroke:black;stroke-width:1.0"/>
<circle cx="383" cy="212" r="7.0" style="fill:brown;stroke:black;stroke-width:1.0"/>
<circle cx="262" cy="263" r="7.0" style="fill:red;stroke:black;stroke-width:1.0"/>
<circle cx="248" cy="169" r="7.0" style="fill:orange;stroke:black;stroke-width:1.0"/>
<circle cx="131" cy="201" r="7.0" style="fill:green;stroke:black;stroke-width:1.0"/>
<circle cx="171" cy="147" r="7.0" style="fill:purple;stroke:black;stroke-width:1.0"/>
<circle cx="166" cy="136" r="7.0" style="fill:blue;stroke:black;stroke-width:1.0"/>
<circle cx="172" cy="305" r="7.0" style="fill:yellow;stroke:black;stroke-width:1.0"/>
<circle cx="260" cy="170" r="7.0" style="fill:blue;stroke:black;stroke-width:1.0"/>
<circle cx="239" cy="189" r="7.0" style="fill:orange;stroke:black;stroke-width:1.0"/>
<circle cx="223" cy="143" r="7.0" style="fill:orange;stroke:black;stroke-width:1.0"/>
<circle cx="35" cy="275" r="7.0" style="fill:lime;stroke:black;stroke-width:1.0"/>
<circle cx="198" cy="251" r="7.0" style="fill:yellow;stroke:black;stroke-width:1.0"/>
<circle cx="241" cy="243" r="7.0" style="fill:fuchsia;stroke:black;stroke-width:1.0"/>
<circle cx="289" cy="211" r="7.0" style="fill:red;stroke:black;stroke-width:1.0"/>
<circle cx="249" cy="253" r="7.0" style="fill:red;stroke:black;stroke-width:1.0"/>
<circle cx="226" cy="190" r="7.0" style="fill:blue;stroke:black;stroke-width:1.0"/>
<circle cx="162" cy="177" r="7.0" style="fill:blue;stroke:black;stroke-width:1.0"/>
<circle cx="178" cy="141" r="7.0" style="fill:purple;stroke:black;stroke-width:1.0"/>
<circle cx="175" cy="198" r="7.0" style="fill:fuchsia;stroke:black;stroke-width:1.0"/>
<circle cx="175" cy="225" r="7.0" style="fill:fuchsia;stroke:black;stroke-width:1.0"/>
<circle cx="161" cy="125" r="7.0" style="fill:purple;stroke:black;stroke-width:1.0"/>
<circle cx="151" cy="257" r="7.0" style="fill:fuchsia;stroke:black;stroke-width:1.0"/>
<circle cx="183" cy="151" r="7.0" style="fill:green;stroke:black;stroke-width:1.0"/>
<circle cx="169" cy="211" r="7.0" style="fill:blue;stroke:black;stroke-width:1.0"/>
<circle cx="250" cy="266" r="7.0" style="fill:red;stroke:black;stroke-width:1.0"/>
<circle cx="151" cy="193" r="7.0" style="fill:fuchsia;stroke:black;stroke-width:1.0"/>
<circle cx="110" cy="125" r="7.0" style="fill:olive;stroke:black;stroke-width:1.0"/>
<circle cx="186" cy="104" r="7.0" style="fill:purple;stroke:black;stroke-width:1.0"/>
<circle cx="192" cy="254" r="7.0" style="fill:green;stroke:black;stroke-width:1.0"/>
<circle cx="168" cy="154" r="7.0" style="fill:purple;stroke:black;stroke-width:1.0"/>
<circle cx="209" cy="222" r="7.0" style="fill:fuchsia;stroke:black;stroke-width:1.0"/>
<circle cx="212" cy="312" r="7.0" style="fill:yellow;stroke:black;stroke-width:1.0"/>
<circle cx="197" cy="170" r="7.0" style="fill:blue;stroke:black;stroke-width:1.0"/>
<circle cx="419" cy="222" r="7.0" style="fill:gray;stroke:black;stroke-width:1.0"/>
<circle cx="39" cy="290" r="7.0" style="fill:lime;stroke:black;stroke-width:1.0"/>
<circle cx="146" cy="162" r="7.0" style="fill:green;stroke:black;stroke-width:1.0"/>
<circle cx="208" cy="165" r="7.0" style="fill:blue;stroke:black;stroke-width:1.0"/>
<circle cx="115" cy="169" r="7.0" style="fill:olive;stroke:black;stroke-width:1.0"/>
<circle cx="136" cy="271" r="7.0" style="fill:green;stroke:black;stroke-width:1.0"/>
<circle cx="420" cy="206" r="7.0" style="fill:gray;stroke:black;stroke-width:1.0"/>
<circle cx="178" cy="320" r="7.0" style="fill:green;stroke:black;stroke-width:1.0"/>
<circle cx="283" cy="234" r="7.0" style="fill:red;stroke:black;stroke-width:1.0"/>
<circle cx="189" cy="160" r="7.0" style="fill:orange;stroke:black;stroke-width:1.0"/>
<circle cx="157" cy="237" r="7.0" style="fill:green;stroke:black;stroke-width:1.0"/>
<circle cx="221" cy="198" r="7.0" style="fill:blue;stroke:black;stroke-width:1.0"/>
<circle cx="185" cy="231" r="7.0" style="fill:blue;stroke:black;stroke-width:1.0"/>
<circle cx="224" cy="244" r="7.0" style="fill:blue;stroke:black;stroke-width:1.0"/>
<circle cx="80" cy="206" r="7.0" style="fill:olive;stroke:black;stroke-width:1.0"/>
<circle cx="142" cy="212" r="7.0" style="fill:green;stroke:black;stroke-width:1.0"/>
<circle cx="106" cy="20" r="7.0" style="fill:white;stroke:black;stroke-width:1.0"/>
<circle cx="201" cy="201" r="7.0" style="fill:yellow;stroke:black;stroke-width:1.0"/>
<circle cx="231" cy="180" r="7.0" style="fill:orange;stroke:black;stroke-width:1.0"/>
<circle cx="24" cy="153" r="7.0" style="fill:aqua;stroke:black;stroke-width:1.0"/>
<circle cx="171" cy="108" r="7.0" style="fill:purple;stroke:black;stroke-width:1.0"/>
<circle cx="246" cy="196" r="7.0" style="fill:orange;stroke:black;stroke-width:1.0"/>
<circle cx="189" cy="178" r="7.0" style="fill:blue;stroke:black;stroke-width:1.0"/>
<circle cx="157" cy="188" r="7.0" style="fill:green;stroke:black;stroke-width:1.0"/>
<circle cx="68" cy="179" r="7.0" style="fill:olive;stroke:black;stroke-width:1.0"/>
<circle cx="199" cy="315" r="7.0" style="fill:yellow;stroke:black;stroke-width:1.0"/>
<circle cx="185" cy="202" r="7.0" style="fill:yellow;stroke:black;stroke-width:1.0"/>
<circle cx="152" cy="220" r="7.0" style="fill:green;stroke:black;stroke-width:1.0"/>
<circle cx="263" cy="218" r="7.0" style="fill:orange;stroke:black;stroke-width:1.0"/>
<circle cx="62" cy="170" r="7.0" style="fill:olive;stroke:black;stroke-width:1.0"/>
</svg>
